<svg width="14" height="14" viewBox="0 0 14 14" fill="none" xmlns="http://www.w3.org/2000/svg">
<g clip-path="url(#clip0_478_5588)">
<path d="M9.24081 14.0296C10.0972 14.0296 10.8919 13.7052 11.4798 13.1166L12.0031 12.5171C12.2741 12.2481 12.4348 11.8605 12.4348 11.4475C12.4348 11.0346 12.2741 10.6482 11.9827 10.3559L10.6867 9.35595C10.1342 8.79891 9.16962 8.79183 8.56679 9.37468L7.75788 10.0187C6.02141 9.29392 4.7941 8.06286 4.01433 6.26727L4.66878 5.44379C5.23706 4.87968 5.23706 3.90091 4.63506 3.29891L3.71125 2.09033C3.05138 1.41881 2.07345 1.46336 1.49018 2.04662L0.935227 2.52789C0.32407 3.1353 0.000171661 3.93047 0.000171661 4.78642C0.000171661 8.75895 5.2687 14.0275 9.24122 14.0275V14.0291L9.24081 14.0296ZM9.63798 9.83139C9.80492 9.83139 9.9727 9.8955 10.1005 10.0233L11.3965 11.0233C11.4773 11.1095 11.5447 11.2739 11.5447 11.4488C11.5447 11.6236 11.4764 11.7881 11.3528 11.9126L10.8295 12.5121C10.4307 12.9101 9.85863 13.142 9.23956 13.142C6.06512 13.142 0.886518 8.47543 0.886518 4.78892C0.886518 4.16985 1.11841 3.59866 1.53847 3.17943L2.09343 2.69733C2.38652 2.40674 2.79493 2.42839 3.04305 2.67693L3.96687 3.8855C4.26079 4.18401 4.26079 4.60033 4.00517 4.85553L2.99268 6.12364L3.08843 6.36344C3.97853 8.58118 5.52099 10.122 7.67212 10.9425L7.90942 11.0333L9.17336 10.0233C9.30118 9.8955 9.46895 9.83139 9.63715 9.83139H9.63798Z" fill="#92A2AE"/>
</g>
<defs>
<clipPath id="clip0_478_5588">
<rect width="14" height="14" fill="white" transform="matrix(-1 0 0 1 14 0)"/>
</clipPath>
</defs>
</svg>
