<svg width="12" height="14" viewBox="0 0 12 14" fill="none" xmlns="http://www.w3.org/2000/svg">
<path d="M10.6667 5.66665H11.3333C11.7015 5.66665 12 5.96511 12 6.33331V13C12 13.3682 11.7015 13.6666 11.3333 13.6666H0.666667C0.29848 13.6666 0 13.3682 0 13V6.33331C0 5.96511 0.29848 5.66665 0.666667 5.66665H1.33333V4.99998C1.33333 2.42265 3.42267 0.333313 6 0.333313C8.57733 0.333313 10.6667 2.42265 10.6667 4.99998V5.66665ZM1.33333 6.99998V12.3333H10.6667V6.99998H1.33333ZM5.33333 8.33331H6.66667V11H5.33333V8.33331ZM9.33333 5.66665V4.99998C9.33333 3.15903 7.84093 1.66665 6 1.66665C4.15905 1.66665 2.66667 3.15903 2.66667 4.99998V5.66665H9.33333Z" fill="#607888"/>
</svg>
