<svg width="14" height="14" viewBox="0 0 14 14" fill="none" xmlns="http://www.w3.org/2000/svg">
<g clip-path="url(#clip0_478_5576)">
<path d="M0 5.23492C0.0492125 4.92027 0.0789852 4.59982 0.150965 4.29195C0.493351 2.82668 1.26324 1.7186 2.38952 0.938149C4.42475 -0.471814 6.99326 -0.275953 8.85335 1.41373C8.99171 1.53951 9.1129 1.68985 9.25038 1.81703C9.30957 1.87174 9.38646 1.91865 9.46071 1.93263C11.2874 2.27484 12.71 3.29827 13.5242 5.22554C14.2734 6.99887 14.1186 8.74625 13.1946 10.404C13.1359 10.5092 13.1191 10.5919 13.1543 10.715C13.4054 11.5911 13.6489 12.4702 13.8928 13.3489C13.9793 13.6606 13.8662 13.9427 13.6137 13.9934C13.5073 14.0147 13.3762 13.9818 13.2772 13.9259C12.5282 13.5024 11.7833 13.0696 11.0404 12.6323C10.9408 12.5736 10.8623 12.578 10.7613 12.6198C8.73391 13.4571 6.84982 13.1764 5.12633 11.6694C5.02195 11.5782 4.91582 11.4831 4.83158 11.3693C4.71477 11.2116 4.56871 11.1633 4.39935 11.1186C3.99357 11.0111 3.59304 10.876 3.19374 10.7396C3.10862 10.7105 3.04382 10.7053 2.96466 10.7516C2.21246 11.1908 1.46009 11.6299 0.703511 12.0593C0.607713 12.1136 0.482668 12.1474 0.37969 12.1292C0.125045 12.0843 0.00122593 11.801 0.0863408 11.4935C0.332579 10.6046 0.580568 9.71657 0.832585 8.82991C0.862007 8.72629 0.855352 8.65201 0.800711 8.56017C0.362176 7.82085 0.0971991 7.00846 0.0234679 6.1176C0.0204906 6.08226 0.00805614 6.04812 0 6.01338C0 5.75382 0 5.49447 0 5.23492ZM12.8208 12.619C12.8058 12.5533 12.7995 12.5187 12.7902 12.4852C12.6282 11.9028 12.4725 11.318 12.3005 10.7394C12.2261 10.4886 12.2557 10.289 12.396 10.075C13.432 8.49549 13.4163 6.39252 12.3655 4.82703C10.7395 2.40481 7.40062 2.10853 5.43842 4.21389C4.65225 5.05743 4.19007 6.08485 4.15732 7.32411C4.11791 8.81673 4.64507 10.0418 5.66329 10.9504C7.15928 12.2855 8.81972 12.4832 10.5732 11.695C10.8301 11.5794 11.0366 11.5694 11.2797 11.7201C11.7779 12.0294 12.2893 12.3111 12.821 12.619H12.8208ZM8.05194 1.89629C7.98679 1.84538 7.94108 1.80385 7.89099 1.77111C6.12547 0.618102 4.35259 0.60213 2.64609 1.87074C0.646593 3.35697 0.245187 6.22741 1.62962 8.27846C1.7361 8.43619 1.75484 8.6025 1.70142 8.79038C1.53627 9.37157 1.37532 9.95436 1.21333 10.5368C1.19599 10.599 1.18128 10.6625 1.15921 10.7494C1.23837 10.7057 1.29529 10.6757 1.35116 10.6432C1.82489 10.3682 2.30178 10.1001 2.77061 9.8146C2.97061 9.69282 3.15048 9.68882 3.35241 9.80263C3.52421 9.89946 3.71003 9.96395 3.92194 10.057C3.88008 9.96235 3.85697 9.91224 3.83542 9.86133C3.15556 8.26349 3.13699 6.65487 3.85084 5.0762C4.59988 3.41986 5.83562 2.45932 7.4064 2.03046C7.61183 1.97436 7.82234 1.94321 8.05211 1.89609L8.05194 1.89629Z" fill="#92A2AE"/>
<path d="M7.40035 7.47907C7.39895 7.73123 7.21331 7.94227 6.99229 7.94307C6.76602 7.94387 6.57722 7.72465 6.58212 7.46629C6.58685 7.21433 6.77547 7.00669 6.99667 7.01028C7.21768 7.01367 7.40157 7.22731 7.40035 7.47907Z" fill="#92A2AE"/>
<path d="M10.2744 7.94307C10.0536 7.94686 9.86462 7.73922 9.85972 7.48726C9.85481 7.23469 10.0343 7.01847 10.2557 7.01048C10.482 7.0023 10.6764 7.21573 10.6778 7.47388C10.6792 7.72565 10.4955 7.93948 10.2744 7.94327V7.94307Z" fill="#92A2AE"/>
<path d="M9.03909 7.47927C9.03751 7.73124 8.8517 7.94247 8.63085 7.94287C8.40441 7.94347 8.21614 7.72425 8.22104 7.46589C8.22577 7.21393 8.41456 7.00649 8.63576 7.01008C8.85695 7.01388 9.04067 7.22751 9.03909 7.47927Z" fill="#92A2AE"/>
</g>
<defs>
<clipPath id="clip0_478_5576">
<rect width="14" height="14" fill="white"/>
</clipPath>
</defs>
</svg>
