<svg width="24" height="24" viewBox="0 0 24 24" fill="none" xmlns="http://www.w3.org/2000/svg">
<path d="M17.0002 17.9956V23.9993H21C22.657 23.9993 24 22.6555 24 20.9975V11.8708C24 11.3511 23.7984 10.8516 23.437 10.4778L14.9391 1.28498C13.4395 -0.338378 10.9088 -0.438284 9.28641 1.06218C9.20953 1.13348 9.135 1.20759 9.06375 1.28498L0.58125 10.4749C0.208594 10.8502 0 11.3572 0 11.8858V20.9975C0 22.6555 1.34297 23.9993 3 23.9993H6.99984V17.9956C7.01859 15.2672 9.22031 13.0387 11.8781 12.9749C14.625 12.9088 16.9786 15.1748 16.9997 17.9956H17.0002Z" fill="#12354E"/>
<path d="M12 14.9941C10.343 14.9941 9 16.3379 9 17.996V23.9998H15V17.996C15 16.3379 13.657 14.9941 12 14.9941Z" fill="#12354E"/>
</svg>
