<svg width="24" height="24" viewBox="0 0 24 24" fill="none" xmlns="http://www.w3.org/2000/svg">
<g clip-path="url(#clip0_1046_5693)">
<path d="M23.121 9.05255L15.5357 1.46171C13.581 -0.488537 10.4184 -0.488537 8.4637 1.46171L0.878858 9.05255C0.314483 9.61399 -0.00239188 10.378 -4.81255e-05 11.1745V20.9974C-4.81255e-05 22.6555 1.34292 23.9993 2.99995 23.9993H21C22.657 23.9993 24 22.6555 24 20.9974V11.1745C24.0023 10.378 23.6859 9.61352 23.121 9.05208V9.05255ZM15 21.9984H8.99995V18.0618C8.99995 16.4037 10.3429 15.0599 12 15.0599C13.657 15.0599 15 16.4037 15 18.0618V21.9984ZM21.9998 20.9979C21.9998 21.5504 21.5521 21.9984 21 21.9984H17.0001V18.0618C17.0001 15.2987 14.7614 13.0586 12 13.0586C9.23855 13.0586 6.9998 15.2987 6.9998 18.0618V21.9984H2.99995C2.44776 21.9984 2.00011 21.5504 2.00011 20.9979V11.1749C2.00105 10.9099 2.10651 10.6557 2.29308 10.4676L9.87792 2.8796C11.0517 1.71076 12.9482 1.71076 14.122 2.8796L21.7068 10.47C21.8929 10.6571 21.9979 10.9104 21.9998 11.1745V20.9974V20.9979Z" fill="#607888"/>
</g>
<defs>
<clipPath id="clip0_1046_5693">
<rect width="24" height="24" fill="white"/>
</clipPath>
</defs>
</svg>
