<svg width="14" height="10" viewBox="0 0 14 10" fill="none" xmlns="http://www.w3.org/2000/svg">
<path d="M14 8.91669C13.956 9.04726 13.9269 9.18548 13.8653 9.30678C13.6448 9.74211 13.2853 9.96851 12.8052 9.99879C12.778 10.0006 12.7505 9.99986 12.7232 9.99986C8.90877 9.99986 5.09421 10.0002 1.27982 9.9995C0.613872 9.9995 0.115901 9.57272 0.0126246 8.91544C-0.000175342 8.83386 0.000526026 8.74943 0.000526026 8.66625C0 6.22187 0 3.77748 0 1.3331C0.000175342 0.529409 0.519012 0.000205679 1.30752 0.000205679C5.10368 -0.000150567 8.9 2.75557e-05 12.6962 0.000205679C13.37 0.000205679 13.8226 0.365358 13.9791 1.03243C13.9833 1.05006 13.993 1.06627 14 1.08319V8.91651V8.91669ZM12.5657 0.875146C12.559 0.865171 12.5524 0.855197 12.5457 0.8454H1.4506C1.46744 0.898659 1.50356 0.920568 1.53231 0.94978C3.22506 2.6733 4.91711 4.39771 6.60934 6.12176C6.8727 6.39019 7.12747 6.39073 7.39031 6.12301C8.60666 4.88434 9.8216 3.64425 11.0395 2.40701C11.5452 1.8933 12.0569 1.38565 12.5657 0.875324V0.875146ZM12.5722 9.16393C11.3858 7.96961 10.2193 6.79525 9.05378 5.62195C8.69433 5.98425 8.32155 6.35795 7.95088 6.73415C7.39855 7.29488 6.60022 7.29542 6.05 6.73379C5.71246 6.3893 5.37476 6.04499 5.0367 5.70086C5.00268 5.66612 4.96603 5.63406 4.93079 5.60075C4.93991 5.61607 4.94903 5.63121 4.95814 5.64653C3.79229 6.81929 2.62645 7.99205 1.4613 9.16393H12.572H12.5722ZM0.828315 1.46402V8.53319C1.99118 7.36292 3.16387 6.18268 4.33936 4.99959C3.16387 3.81614 1.99171 2.63572 0.828315 1.46402ZM13.1717 8.53373V1.47026C12.0102 2.63839 10.8375 3.81792 9.66099 5.00137C10.8367 6.18428 12.009 7.36399 13.1717 8.53391V8.53373Z" fill="#92A2AE"/>
</svg>
