<svg width="24" height="24" viewBox="0 0 24 24" fill="none" xmlns="http://www.w3.org/2000/svg">
<g clip-path="url(#clip0_1046_5687)">
<path d="M4.68611 0C9.99897 0 15.3121 0 20.625 0C20.6611 0.0126229 20.6965 0.0309561 20.7338 0.0366665C21.8228 0.211884 22.5929 1.103 22.5935 2.19909C22.595 5.98775 22.5941 9.77672 22.5935 13.5654C22.5935 13.6378 22.5854 13.7103 22.5803 13.7944C19.4957 11.888 15.9851 12.7656 14.1218 15.0396C13.0175 16.3875 12.5275 17.9386 12.697 19.6803C12.8669 21.4273 13.6845 22.8357 15.0506 23.9985C14.9042 23.9985 14.8201 23.9985 14.7359 23.9985C13.1888 23.9985 11.642 23.9985 10.0949 23.9985C8.39955 23.9985 6.70395 24.0024 5.00864 23.997C3.76421 23.9931 2.80444 23.0695 2.82999 21.8962C3.59739 21.8646 4.27281 21.6002 4.81596 21.0426C5.36574 20.4782 5.62995 19.7969 5.62214 19.0095C5.61041 17.8445 4.7321 16.3662 2.82368 16.2447V14.8761C4.70174 14.7601 5.58727 13.3247 5.62093 12.1573C5.64077 11.4676 5.44539 10.8455 5.01495 10.3063C4.45676 9.60661 3.71281 9.26459 2.82639 9.22642V7.74414C4.47871 7.6684 5.4992 6.4566 5.61312 5.16396C5.67113 4.50366 5.51302 3.88905 5.13489 3.34386C4.577 2.5396 3.78646 2.14469 2.82037 2.0993C2.84803 1.39483 3.10653 0.884203 3.62534 0.455626C3.93645 0.19866 4.30707 0.0922672 4.68641 0.000300545L4.68611 0ZM9.15072 5.33347C9.06475 5.25142 9.00223 5.19431 8.94241 5.13481C8.63792 4.83216 8.34244 4.51989 8.02773 4.22836C7.62374 3.85449 7.00784 4.01858 6.86386 4.53101C6.7821 4.82194 6.87889 5.06478 7.0899 5.27366C7.57775 5.75724 8.06139 6.24502 8.54804 6.7298C8.95744 7.13764 9.32596 7.13523 9.73987 6.72168C10.6128 5.8504 11.4845 4.97792 12.3562 4.10544C12.4112 4.05044 12.4668 3.99424 12.5128 3.93203C12.8028 3.53921 12.6279 3.00094 12.1632 2.85067C11.8482 2.74878 11.6026 2.8684 11.3841 3.089C10.6476 3.83134 9.9094 4.57189 9.15102 5.33377L9.15072 5.33347ZM9.1405 11.0384C9.07377 10.9765 9.01636 10.9263 8.96225 10.8725C8.65205 10.5644 8.34905 10.2492 8.03103 9.94923C7.73285 9.66792 7.31504 9.67514 7.04181 9.94713C6.76857 10.2197 6.75625 10.642 7.0412 10.9356C7.56843 11.479 8.10378 12.0149 8.64724 12.5417C8.94421 12.8297 9.33949 12.8306 9.63436 12.5396C10.5791 11.6076 11.5151 10.6672 12.4503 9.72533C12.6318 9.5423 12.6994 9.31388 12.6288 9.05722C12.4776 8.51022 11.8467 8.35635 11.4222 8.7735C10.7207 9.46295 10.029 10.1623 9.33287 10.8572C9.27336 10.9164 9.21083 10.9723 9.1405 11.0384ZM9.12066 16.6838C8.74553 16.3 8.39835 15.9301 8.03404 15.5775C7.73886 15.292 7.31955 15.2986 7.04541 15.5682C6.77008 15.839 6.75444 16.2634 7.0382 16.5564C7.56482 17.1004 8.10077 17.6357 8.64363 18.1631C8.94091 18.4519 9.33678 18.4571 9.63075 18.1673C10.5758 17.2359 11.5118 16.2949 12.4472 15.3539C12.6291 15.1712 12.6991 14.9434 12.6303 14.6867C12.4836 14.14 11.8485 13.9801 11.4259 14.3949C10.7237 15.0837 10.0326 15.7834 9.33648 16.4783C9.27666 16.5378 9.21444 16.5949 9.12096 16.6838H9.12066ZM16.8686 5.62469C17.5404 5.62469 18.2122 5.6259 18.884 5.62439C19.3637 5.62319 19.6818 5.34459 19.6854 4.92773C19.689 4.50997 19.3694 4.21995 18.8957 4.21935C17.5443 4.21754 16.1925 4.21724 14.8411 4.21935C14.3821 4.21995 14.0668 4.50667 14.0632 4.91571C14.0596 5.33347 14.3791 5.62259 14.8528 5.62439C15.5246 5.6265 16.1965 5.625 16.8683 5.625L16.8686 5.62469ZM16.8577 11.3432C17.5296 11.3432 18.2014 11.3441 18.8732 11.3429C19.3661 11.342 19.6896 11.0579 19.6857 10.6336C19.6814 10.2167 19.3634 9.93781 18.8837 9.93751C17.5479 9.93601 16.2118 9.93631 14.876 9.93751C14.383 9.93781 14.0596 10.2224 14.0635 10.6468C14.0677 11.0637 14.3857 11.3417 14.8655 11.3429C15.5295 11.3447 16.1934 11.3432 16.8574 11.3432H16.8577Z" fill="#12354E"/>
<path d="M24 19.5462C23.9654 19.7208 23.9333 19.8957 23.8963 20.07C23.354 22.6286 20.7465 24.3964 18.1695 23.9203C16.2277 23.5618 14.901 22.4227 14.304 20.5485C13.7142 18.6968 14.1513 17.0204 15.4937 15.6205C17.2612 13.7772 20.2808 13.669 22.2169 15.3389C23.1842 16.1729 23.7842 17.2061 23.9573 18.4783C23.9633 18.5228 23.9853 18.5655 24 18.6088C24 18.9213 24 19.2336 24 19.5462ZM19.6869 18.3744C19.6869 18.1285 19.6914 17.9112 19.686 17.6942C19.6755 17.2756 19.377 16.9699 18.9847 16.9696C18.5922 16.9696 18.2895 17.2747 18.2832 17.693C18.2762 18.1456 18.2762 18.5983 18.2832 19.0509C18.2895 19.4813 18.5762 19.771 19.0043 19.7782C19.4569 19.7857 19.9096 19.7848 20.3623 19.7785C20.7828 19.7728 21.0888 19.4753 21.0924 19.083C21.096 18.6818 20.7852 18.3831 20.3509 18.3747C20.1411 18.3707 19.931 18.3741 19.6872 18.3741L19.6869 18.3744Z" fill="#12354E"/>
<path d="M2.12785 6.32692C1.88618 6.32692 1.64391 6.33384 1.40254 6.32572C0.605084 6.29867 0.00180755 5.69307 4.03508e-06 4.92428C-0.00179948 4.15639 0.601176 3.54208 1.39743 3.51923C1.87296 3.50571 2.34939 3.50481 2.82461 3.51953C3.61966 3.54418 4.22174 4.1639 4.21512 4.93089C4.20881 5.69187 3.61485 6.29236 2.82942 6.32452C2.59587 6.33414 2.36141 6.32602 2.12755 6.32662L2.12785 6.32692Z" fill="#12354E"/>
<path d="M2.1017 13.4508C1.86754 13.4508 1.63338 13.4577 1.39983 13.4496C0.602976 13.4216 0 12.8139 0 12.0454C0 11.2769 0.603276 10.6653 1.40013 10.6431C1.87566 10.6298 2.35209 10.6286 2.82731 10.644C3.62206 10.6695 4.22354 11.2913 4.21512 12.0577C4.2067 12.8193 3.61274 13.4177 2.82671 13.449C2.58534 13.4586 2.34307 13.4505 2.1014 13.4508H2.1017Z" fill="#12354E"/>
<path d="M2.11635 17.6718C2.35051 17.6718 2.58467 17.6646 2.81822 17.673C3.61417 17.7019 4.21715 18.3117 4.21535 19.0796C4.21324 19.8487 3.61027 20.4579 2.81281 20.4795C2.3451 20.4921 1.87649 20.4915 1.40877 20.4795C0.609816 20.4597 0.00623867 19.8559 -7.36351e-05 19.0859C-0.00638594 18.3096 0.605006 17.6965 1.41418 17.6727C1.64804 17.6658 1.8822 17.6718 2.11605 17.6721L2.11635 17.6718Z" fill="#12354E"/>
</g>
<defs>
<clipPath id="clip0_1046_5687">
<rect width="24" height="24" fill="white"/>
</clipPath>
</defs>
</svg>
