<svg width="24" height="24" viewBox="0 0 24 24" fill="none" xmlns="http://www.w3.org/2000/svg">
<g clip-path="url(#clip0_1046_5669)">
<path d="M24 18.5629V19.5004C23.9829 19.5753 23.9624 19.6495 23.9495 19.7252C23.6198 21.648 22.5585 22.9867 20.7376 23.6959C20.3586 23.8434 19.9444 23.9011 19.5464 24.0003H4.7331C4.72018 23.9918 4.70815 23.9774 4.69433 23.9756C3.61017 23.8239 2.81996 22.856 2.85724 21.6997C2.86325 21.5164 2.85814 21.3325 2.85814 21.16C2.4707 21.1399 2.11783 21.1426 1.77067 21.0993C0.413893 20.9311 -0.415082 19.3334 0.214314 18.1194C0.623391 17.33 1.28164 16.9472 2.15961 16.9232C2.39015 16.9168 2.62099 16.9223 2.84491 16.9223V14.1094C2.60716 14.1094 2.38203 14.1124 2.15721 14.1088C1.60716 14.0998 1.10821 13.9423 0.702742 13.5601C0.0886754 12.981 -0.138857 12.271 0.0865714 11.4537C0.322219 10.5997 0.899315 10.0822 1.77368 9.935C2.12294 9.8761 2.48453 9.89053 2.84161 9.8716V7.09569C2.48272 7.07796 2.13827 7.08066 1.79892 7.04009C0.787202 6.9199 -0.00269821 5.9995 6.92726e-06 4.96642C0.00301264 3.92944 0.788705 3.01926 1.80494 2.89786C2.14939 2.8567 2.49926 2.8594 2.85784 2.84167C2.85784 2.61661 2.85633 2.40657 2.85784 2.19622C2.86926 0.917346 3.76706 0.00446253 5.04209 0.00326058C10.1671 -0.00154724 15.2925 -0.0024487 20.4175 0.0104723C20.7427 0.0113738 21.0941 0.0870968 21.3871 0.225321C22.2281 0.622266 22.5936 1.33533 22.5936 2.25091C22.5936 6.61761 22.5945 10.9846 22.59 15.3513C22.59 15.519 22.6333 15.6431 22.7466 15.7681C23.3024 16.3814 23.6763 17.0932 23.8614 17.9012C23.9116 18.1206 23.954 18.3421 24 18.5626V18.5629ZM21.1873 14.5718C21.1873 14.4652 21.1873 14.3798 21.1873 14.2942C21.1873 10.3031 21.1873 6.31201 21.1873 2.32093C21.1873 1.64393 20.9504 1.40744 20.2726 1.40744C15.2423 1.40744 10.2116 1.40744 5.18125 1.40744C5.11092 1.40744 5.04058 1.40564 4.97025 1.40864C4.56658 1.42607 4.28104 1.70583 4.26661 2.10788C4.2582 2.34196 4.27202 2.57664 4.2612 2.81072C4.25519 2.93933 4.30028 2.99853 4.4175 3.05412C5.21942 3.43363 5.65706 4.07788 5.66066 4.95981C5.66427 5.85166 5.22634 6.50372 4.4151 6.88685C4.29577 6.94334 4.2606 7.00614 4.2615 7.13174C4.26661 8.0299 4.26661 8.92806 4.2615 9.82622C4.2606 9.95934 4.29757 10.0275 4.42501 10.0882C5.22544 10.4702 5.66006 11.1162 5.66126 11.9985C5.66247 12.8804 5.22874 13.5273 4.42982 13.912C4.30659 13.9712 4.2603 14.0334 4.2612 14.1707C4.26752 15.0532 4.27052 15.9358 4.2594 16.8183C4.2573 16.9968 4.32162 17.0686 4.47401 17.1434C5.18937 17.4956 5.59574 18.0818 5.65675 18.8739C5.71777 19.6672 5.42712 20.3565 4.73881 20.7466C4.3132 20.9879 4.2062 21.2565 4.26361 21.6784C4.26992 21.7244 4.26361 21.7721 4.26511 21.8187C4.27864 22.2875 4.58402 22.5934 5.0514 22.5937C8.51188 22.5952 11.9721 22.5946 15.4325 22.5937C15.4878 22.5937 15.5431 22.5823 15.6174 22.5741C13.7698 20.6555 13.8203 18.0085 15.0087 16.2648C16.1653 14.5682 18.6084 13.4417 21.1876 14.5721L21.1873 14.5718ZM19.0827 15.5169C17.1479 15.5139 15.5618 17.0983 15.5627 19.0335C15.5633 20.9888 17.1422 22.5901 19.073 22.5934C21.0027 22.5967 22.5867 20.9993 22.593 19.0434C22.5993 17.1089 21.018 15.5202 19.0827 15.5169ZM2.81696 5.67227C3.05922 5.67227 3.30148 5.67738 3.54344 5.67107C3.96093 5.66025 4.26601 5.35676 4.26271 4.96372C4.2594 4.58 3.95943 4.2765 3.55516 4.26929C3.07876 4.26058 2.60205 4.26118 2.12565 4.26869C1.70815 4.2753 1.40307 4.5824 1.40638 4.97544C1.40969 5.36818 1.71597 5.66236 2.13737 5.67167C2.3637 5.67678 2.59033 5.67257 2.81696 5.67227ZM2.81395 12.7028C3.06403 12.7028 3.3141 12.7097 3.56388 12.7013C3.96574 12.6875 4.26451 12.3819 4.26271 11.9979C4.2612 11.6141 3.96153 11.3079 3.55817 11.3004C3.07395 11.2914 2.58943 11.2908 2.10521 11.3004C1.70334 11.3085 1.40458 11.6192 1.40638 12.003C1.40788 12.3867 1.70755 12.6881 2.11092 12.701C2.34506 12.7085 2.57951 12.7025 2.81395 12.7022V12.7028ZM2.83018 19.7339C3.07244 19.7339 3.3147 19.7402 3.55666 19.7324C3.96033 19.7198 4.2603 19.4196 4.26271 19.0359C4.26511 18.6522 3.96694 18.3403 3.56538 18.3318C3.08116 18.3216 2.59664 18.3225 2.11242 18.3312C1.70845 18.3388 1.40878 18.6434 1.40638 19.0272C1.40397 19.4112 1.70214 19.7177 2.1037 19.7321C2.34566 19.7408 2.58792 19.7336 2.83018 19.7339Z" fill="#607888"/>
<path d="M9.18213 6.79714C9.92213 6.05554 10.6327 5.34308 11.3438 4.63182C11.4211 4.5546 11.4974 4.47497 11.5843 4.40976C11.871 4.19491 12.2531 4.22737 12.5004 4.48128C12.7418 4.72918 12.7694 5.09908 12.563 5.38034C12.5125 5.44915 12.4514 5.51075 12.391 5.57115C11.5251 6.43806 10.6585 7.30497 9.79169 8.17068C9.36908 8.59256 9.00539 8.59286 8.58339 8.17188C8.08625 7.67577 7.5864 7.18207 7.09556 6.67965C6.86022 6.43896 6.81964 6.13336 6.9588 5.86052C7.09376 5.59609 7.3799 5.42752 7.67657 5.49392C7.84098 5.53088 8.0102 5.62914 8.13494 5.74573C8.48751 6.07507 8.81814 6.42814 9.18243 6.79714H9.18213Z" fill="#607888"/>
<path d="M9.17674 12.4125C9.2633 12.3299 9.32552 12.2725 9.38534 12.2127C10.0703 11.5288 10.7532 10.8431 11.44 10.1613C11.78 9.82384 12.2017 9.80401 12.4968 10.103C12.7866 10.3966 12.7698 10.8145 12.443 11.143C11.5401 12.0505 10.6354 12.9561 9.72709 13.8579C9.37902 14.2035 8.98918 14.198 8.63631 13.8495C8.13646 13.3558 7.64022 12.8588 7.14578 12.3597C6.81335 12.0237 6.79562 11.5937 7.09408 11.3025C7.38594 11.018 7.80614 11.039 8.13466 11.3635C8.47851 11.7031 8.81636 12.0493 9.17644 12.4125H9.17674Z" fill="#607888"/>
<path d="M9.18788 18.0453C9.95404 17.2763 10.6925 16.5365 11.4289 15.7943C11.6475 15.5744 11.8918 15.4524 12.2074 15.5536C12.673 15.7027 12.8497 16.2403 12.5606 16.6333C12.5101 16.7021 12.4485 16.7631 12.3881 16.8238C11.5221 17.6907 10.6559 18.5576 9.78842 19.4233C9.36762 19.8434 9.00423 19.8416 8.58013 19.4182C8.08839 18.9275 7.59425 18.4392 7.10793 17.9434C6.86266 17.6934 6.81668 17.3854 6.96125 17.1063C7.09771 16.8427 7.38566 16.6754 7.68112 16.7439C7.84553 16.782 8.01325 16.8818 8.13829 16.9984C8.49146 17.3268 8.82329 17.6781 9.18818 18.0453H9.18788Z" fill="#607888"/>
<path d="M16.9687 7.07869C16.2969 7.07869 15.6252 7.08019 14.9534 7.07808C14.4767 7.07658 14.1578 6.79322 14.1575 6.37584C14.1575 5.95847 14.4761 5.6736 14.9528 5.673C16.2963 5.6715 17.6399 5.6715 18.9834 5.673C19.4601 5.6736 19.7791 5.95786 19.7794 6.37524C19.7794 6.79262 19.4607 7.07658 18.984 7.07808C18.3123 7.08019 17.6405 7.07869 16.9687 7.07869Z" fill="#607888"/>
<path d="M16.9684 12.7034C16.2966 12.7034 15.6249 12.7049 14.9531 12.7028C14.4764 12.7013 14.1575 12.4176 14.1575 12.0005C14.1575 11.5832 14.4761 11.2986 14.9528 11.298C16.2963 11.2965 17.6399 11.2965 18.9834 11.298C19.4601 11.2986 19.7791 11.5829 19.7791 12.0002C19.7791 12.4176 19.4604 12.7016 18.9837 12.7028C18.312 12.7049 17.6402 12.7034 16.9684 12.7034Z" fill="#607888"/>
<path d="M19.7806 18.3289C20.0361 18.3289 20.2546 18.3235 20.4725 18.3301C20.8873 18.3425 21.1918 18.6505 21.1854 19.0423C21.1791 19.4251 20.8786 19.7244 20.4737 19.7316C20.0135 19.7397 19.5527 19.7397 19.0926 19.7316C18.6757 19.7244 18.3853 19.4374 18.3775 19.0231C18.3688 18.563 18.3694 18.1024 18.3772 17.642C18.3841 17.2253 18.6913 16.9203 19.0835 16.9239C19.4758 16.9272 19.7701 17.2331 19.7797 17.6537C19.7845 17.8704 19.7806 18.0871 19.7806 18.3292V18.3289Z" fill="#607888"/>
</g>
<defs>
<clipPath id="clip0_1046_5669">
<rect width="24" height="24" fill="white"/>
</clipPath>
</defs>
</svg>
