<svg width="24" height="24" viewBox="0 0 24 24" fill="none" xmlns="http://www.w3.org/2000/svg">
<path d="M10.0145 13.8093H17.0037C20.8697 13.8072 24.0021 10.672 24 6.80589C23.9979 2.93982 20.8626 -0.19257 16.9965 -0.190429C13.3025 -0.189001 10.2457 2.68289 10.0138 6.36982V13.8093H10.0145ZM17.0037 0.976456C20.2253 0.976456 22.8367 3.58785 22.8367 6.80945C22.8367 10.0311 20.2253 12.6425 17.0037 12.6425H11.1807V6.42478C11.3884 3.3609 13.932 0.980025 17.0037 0.975743V0.976456Z" fill="#12354E"/>
<path d="M15.8412 24.0506C17.3093 24.0506 18.6717 23.4946 19.6794 22.4855L20.5766 21.4578C21.0412 20.9967 21.3167 20.3323 21.3167 19.6243C21.3167 18.9163 21.0412 18.254 20.5416 17.753L18.3199 16.0387C17.3728 15.0838 15.7192 15.0717 14.6857 16.0708L13.299 17.1749C10.3222 15.9324 8.21828 13.822 6.88153 10.7438L8.00346 9.33216C8.97764 8.36511 8.97764 6.68722 7.94565 5.65522L6.36197 3.58338C5.23077 2.43219 3.5543 2.50856 2.55442 3.50844L1.60307 4.33347C0.555374 5.37474 0.000120163 6.73789 0.000120163 8.20524C0.000120163 15.0153 9.03188 24.047 15.8419 24.047V24.0499L15.8412 24.0506ZM16.5221 16.8538C16.8083 16.8538 17.0959 16.9637 17.315 17.1828L19.5367 18.897C19.6752 19.0448 19.7908 19.3267 19.7908 19.6264C19.7908 19.9262 19.6737 20.2081 19.4618 20.4215L18.5647 21.4492C17.8809 22.1315 16.9003 22.529 15.8391 22.529C10.3972 22.529 1.51957 14.5293 1.51957 8.20952C1.51957 7.14826 1.91709 6.16908 2.63721 5.45039L3.58856 4.62394C4.091 4.12578 4.79113 4.16289 5.21649 4.58897L6.80017 6.66081C7.30403 7.17253 7.30404 7.88622 6.86583 8.32371L5.13013 10.4976L5.29428 10.9087C6.82015 14.7105 9.46438 17.3519 13.152 18.7586L13.5588 18.9142L15.7256 17.1828C15.9447 16.9637 16.2323 16.8538 16.5206 16.8538H16.5221Z" fill="#12354E"/>
<path d="M16.4314 3.89258H19.9313V5.05946H16.4314V3.89258Z" fill="#12354E"/>
<path d="M14.0983 6.22559H19.9313V7.39247H14.0983V6.22559Z" fill="#12354E"/>
<path d="M14.0983 8.55957H19.9313V9.72645H14.0983V8.55957Z" fill="#12354E"/>
</svg>
