<svg width="13" height="15" viewBox="0 0 13 15" fill="none" xmlns="http://www.w3.org/2000/svg">
<path d="M12 3.75C12 5.26867 9.53733 6.5 6.5 6.5C3.46267 6.5 1 5.26867 1 3.75M12 3.75C12 2.23133 9.53733 1 6.5 1C3.46267 1 1 2.23133 1 3.75M12 3.75V11.25C12 12.7687 9.53733 14 6.5 14C3.46267 14 1 12.7687 1 11.25V3.75M12 3.75V6.25M1 3.75V6.25M12 6.25V8.75C12 10.2687 9.53733 11.5 6.5 11.5C3.46267 11.5 1 10.2687 1 8.75V6.25M12 6.25C12 7.76867 9.53733 9 6.5 9C3.46267 9 1 7.76867 1 6.25" stroke="#607888" stroke-width="1.5" stroke-linecap="round" stroke-linejoin="round"/>
</svg>
