<svg width="24" height="24" viewBox="0 0 24 24" fill="none" xmlns="http://www.w3.org/2000/svg">
<path d="M12 12C15.3136 12 18 9.31359 18 6C18 2.68641 15.3136 0 12 0C8.68641 0 6 2.68641 6 6C6.00328 9.31219 8.68781 11.9967 12 12ZM12 2.00016C14.2092 2.00016 15.9998 3.79125 15.9998 6C15.9998 8.20875 14.2087 9.99984 12 9.99984C9.79125 9.99984 8.00016 8.20875 8.00016 6C8.00016 3.79125 9.79125 2.00016 12 2.00016Z" fill="#607888"/>
<path d="M12 14C7.03172 14.0052 3.00562 18.0317 3 23C3 23.5522 3.44766 23.9998 3.99984 23.9998C4.55203 23.9998 4.99969 23.5522 4.99969 23C4.99969 19.1342 8.13375 16.0002 11.9995 16.0002C15.8653 16.0002 18.9994 19.1342 18.9994 23C18.9994 23.5522 19.447 23.9998 19.9992 23.9998C20.5514 23.9998 20.9991 23.5522 20.9991 23C20.9934 18.0317 16.9673 14.0056 11.9991 14H12Z" fill="#607888"/>
</svg>
