<svg width="16" height="16" viewBox="0 0 16 16" fill="none" xmlns="http://www.w3.org/2000/svg">
<path d="M5.79059 2.6667L7.52834 0.928969C7.78868 0.668615 8.21081 0.668615 8.47114 0.928969L10.2089 2.6667H12.6664C13.0346 2.6667 13.3331 2.96518 13.3331 3.33337V5.79089L15.0708 7.52865C15.3311 7.78898 15.3311 8.21111 15.0708 8.47145L13.3331 10.2092V12.6667C13.3331 13.0349 13.0346 13.3334 12.6664 13.3334H10.2089L8.47114 15.0711C8.21081 15.3314 7.78868 15.3314 7.52834 15.0711L5.79059 13.3334H3.33306C2.96488 13.3334 2.6664 13.0349 2.6664 12.6667V10.2092L0.928663 8.47145C0.66831 8.21111 0.66831 7.78898 0.928663 7.52865L2.6664 5.79089V3.33337C2.6664 2.96518 2.96488 2.6667 3.33306 2.6667H5.79059ZM3.99973 4.00004V6.34318L2.34288 8.00005L3.99973 9.65691V12H6.34288L7.99974 13.6569L9.65661 12H11.9997V9.65691L13.6566 8.00005L11.9997 6.34318V4.00004H9.65661L7.99974 2.34318L6.34288 4.00004H3.99973ZM7.99974 10.6667C6.52697 10.6667 5.33306 9.47278 5.33306 8.00005C5.33306 6.52728 6.52697 5.33337 7.99974 5.33337C9.47248 5.33337 10.6664 6.52728 10.6664 8.00005C10.6664 9.47278 9.47248 10.6667 7.99974 10.6667ZM7.99974 9.33338C8.73614 9.33338 9.33308 8.73645 9.33308 8.00005C9.33308 7.26365 8.73614 6.66672 7.99974 6.66672C7.26334 6.66672 6.66641 7.26365 6.66641 8.00005C6.66641 8.73645 7.26334 9.33338 7.99974 9.33338Z" fill="#607888"/>
</svg>
