<svg width="106" height="106" viewBox="0 0 106 106" fill="none" xmlns="http://www.w3.org/2000/svg">
<g clip-path="url(#clip0_1232_5497)">
<path d="M106 53.0006C106 55.4128 105.84 57.7861 105.525 60.1134C102.954 79.2955 90.1198 95.2278 72.7269 102.206C66.6299 104.655 59.9728 106.001 52.9994 106.001C23.7288 106 0 82.2712 0 53.0006C0 23.73 23.7288 0 53.0006 0C82.2725 0 106.001 23.7288 106.001 53.0006H106Z" fill="#12354E"/>
<path d="M105.525 60.1122C102.954 79.2942 90.1198 95.2265 72.7269 102.205L21.9651 51.443C42.8926 15.6256 90.4459 45.0332 90.4459 45.0332L105.526 60.1134L105.525 60.1122Z" fill="#081621"/>
<path d="M63.1317 72.3463L52.9994 82.4785L42.8672 72.3463C45.4599 69.7535 49.0418 68.1499 52.9994 68.1499C56.957 68.1499 60.5389 69.7535 63.1317 72.3463Z" fill="#FCFCFC"/>
<path d="M66.128 51.4067C61.968 49.6466 57.5509 48.7545 53.0006 48.7545C48.4502 48.7545 44.0332 49.6466 39.8732 51.4067C35.8561 53.1061 32.2512 55.5364 29.1555 58.6322L35.5652 65.042C37.8319 62.7765 40.4695 60.9983 43.4041 59.7558C46.4405 58.471 49.6696 57.8201 53.0006 57.8201C56.3315 57.8201 59.5607 58.471 62.5971 59.7558C65.5328 60.9983 68.1705 62.7765 70.4359 65.042L76.8457 58.6322C73.7499 55.5364 70.1438 53.1061 66.128 51.4067Z" fill="#FCFCFC"/>
<path d="M73.6142 33.6852C67.082 30.9228 60.1462 29.5215 52.9994 29.5215C45.8527 29.5215 38.9168 30.9228 32.3846 33.6852C26.0779 36.3531 20.4148 40.1702 15.5529 45.032L21.9627 51.4418C25.9942 47.409 30.6888 44.2441 35.9156 42.0332C41.3241 39.7459 47.0709 38.5859 52.9982 38.5859C58.9255 38.5859 64.6723 39.7459 70.0808 42.0332C75.3063 44.2441 80.0021 47.409 84.0337 51.4418L90.4435 45.032C85.5816 40.1702 79.9185 36.3519 73.6118 33.6852H73.6142Z" fill="#FCFCFC"/>
</g>
<defs>
<clipPath id="clip0_1232_5497">
<rect width="106" height="106" fill="white"/>
</clipPath>
</defs>
</svg>
